<svg width="188" height="51" viewBox="0 0 188 51" fill="none" xmlns="http://www.w3.org/2000/svg">
<path d="M23.9 9.3C22.6667 8.66666 21.3167 8.11666 19.85 7.65C18.3833 7.18333 16.95 6.95 15.55 6.95C13.6167 6.95 12.0667 7.4 10.9 8.3C9.76667 9.2 9.2 10.4 9.2 11.9C9.2 13.0333 9.56667 14 10.3 14.8C11.0333 15.5667 12 16.2333 13.2 16.8C14.4 17.3667 15.65 17.9 16.95 18.4C18.0833 18.8333 19.2 19.3167 20.3 19.85C21.4 20.3833 22.3833 21.05 23.25 21.85C24.15 22.65 24.85 23.6333 25.35 24.8C25.8833 25.9667 26.15 27.4167 26.15 29.15C26.15 31.05 25.6667 32.7833 24.7 34.35C23.7667 35.9167 22.4167 37.15 20.65 38.05C18.8833 38.95 16.7833 39.4 14.35 39.4C12.75 39.4 11.2167 39.2167 9.75 38.85C8.31667 38.4833 6.98333 38.0167 5.75 37.45C4.51667 36.85 3.41667 36.2333 2.45 35.6L4.6 31.8C5.4 32.3667 6.31667 32.9167 7.35 33.45C8.38333 33.95 9.46667 34.3667 10.6 34.7C11.7333 35 12.8333 35.15 13.9 35.15C15.0333 35.15 16.15 34.95 17.25 34.55C18.3833 34.1167 19.3167 33.4667 20.05 32.6C20.7833 31.7333 21.15 30.5833 21.15 29.15C21.15 27.9167 20.8167 26.9 20.15 26.1C19.5167 25.2667 18.6667 24.5667 17.6 24C16.5333 23.4 15.4 22.8667 14.2 22.4C13.0667 21.9667 11.9167 21.5 10.75 21C9.58333 20.4667 8.5 19.8333 7.5 19.1C6.5 18.3333 5.7 17.4 5.1 16.3C4.5 15.2 4.2 13.8667 4.2 12.3C4.2 10.4 4.65 8.75 5.55 7.35C6.48333 5.91666 7.75 4.8 9.35 4C10.95 3.16667 12.7833 2.71666 14.85 2.65C17.1833 2.65 19.2333 2.93333 21 3.5C22.8 4.06667 24.3833 4.76667 25.75 5.6L23.9 9.3ZM35.1516 9.2H39.8016V18.4H45.5016V22.05H39.8016V39H35.1516V22.05H31.3516V18.4H35.1516V9.2ZM55.2703 18.3L55.7203 24.3L55.4703 23.5C56.0036 22.2333 56.7703 21.1667 57.7703 20.3C58.8036 19.4 59.8703 18.7167 60.9703 18.25C62.1036 17.75 63.087 17.5 63.9203 17.5L63.6703 22.1C62.1036 22 60.7203 22.3 59.5203 23C58.3536 23.7 57.4203 24.6333 56.7203 25.8C56.0536 26.9667 55.7203 28.2167 55.7203 29.55V39H51.1203V18.3H55.2703ZM67.2402 28.45C67.2402 26.3833 67.7236 24.5167 68.6902 22.85C69.6902 21.1833 71.0569 19.8667 72.7902 18.9C74.5236 17.9333 76.4902 17.45 78.6902 17.45C80.9569 17.45 82.9402 17.9333 84.6402 18.9C86.3402 19.8667 87.6569 21.1833 88.5902 22.85C89.5236 24.5167 89.9902 26.3833 89.9902 28.45C89.9902 30.5167 89.5236 32.4 88.5902 34.1C87.6569 35.7667 86.3236 37.0833 84.5902 38.05C82.8902 39.0167 80.9069 39.5 78.6402 39.5C76.4402 39.5 74.4736 39.05 72.7402 38.15C71.0402 37.2167 69.6902 35.9333 68.6902 34.3C67.7236 32.6333 67.2402 30.6833 67.2402 28.45ZM71.8902 28.5C71.8902 29.8333 72.1902 31.05 72.7902 32.15C73.3902 33.2167 74.1902 34.0667 75.1902 34.7C76.2236 35.3333 77.3569 35.65 78.5902 35.65C79.8902 35.65 81.0402 35.3333 82.0402 34.7C83.0736 34.0667 83.8736 33.2167 84.4402 32.15C85.0069 31.05 85.2902 29.8333 85.2902 28.5C85.2902 27.1667 85.0069 25.9667 84.4402 24.9C83.8736 23.8 83.0736 22.9333 82.0402 22.3C81.0402 21.6333 79.8902 21.3 78.5902 21.3C77.3236 21.3 76.1736 21.6333 75.1402 22.3C74.1402 22.9667 73.3402 23.85 72.7402 24.95C72.1736 26.0167 71.8902 27.2 71.8902 28.5ZM108.486 39.5C106.92 39.5 105.403 39.1333 103.936 38.4C102.503 37.6667 101.386 36.6833 100.586 35.45L100.886 34V48.95H96.2863V18H100.286L100.936 23.3L100.436 21.85C101.436 20.5833 102.703 19.5333 104.236 18.7C105.77 17.8667 107.486 17.45 109.386 17.45C111.32 17.45 113.053 17.9167 114.586 18.85C116.153 19.7833 117.386 21.0833 118.286 22.75C119.186 24.4167 119.636 26.3667 119.636 28.6C119.636 30.8333 119.153 32.7667 118.186 34.4C117.22 36.0333 115.886 37.3 114.186 38.2C112.52 39.0667 110.62 39.5 108.486 39.5ZM107.586 35.8C108.92 35.8 110.136 35.5 111.236 34.9C112.37 34.2667 113.27 33.4167 113.936 32.35C114.603 31.25 114.936 30.0167 114.936 28.65C114.936 27.25 114.62 26.0167 113.986 24.95C113.353 23.85 112.503 22.9833 111.436 22.35C110.403 21.7167 109.236 21.4 107.936 21.4C106.736 21.4 105.653 21.6333 104.686 22.1C103.72 22.5667 102.92 23.2167 102.286 24.05C101.653 24.85 101.203 25.7833 100.936 26.85V30.3C101.103 31.3667 101.503 32.3167 102.136 33.15C102.77 33.9833 103.553 34.6333 104.486 35.1C105.453 35.5667 106.486 35.8 107.586 35.8ZM125.925 39V0.299998H130.475V23.1L130.375 22.25C131.075 20.8833 132.142 19.75 133.575 18.85C135.042 17.95 136.758 17.5 138.725 17.5C140.692 17.5 142.292 18.0833 143.525 19.25C144.792 20.3833 145.442 21.8667 145.475 23.7V39H140.775V25.35C140.742 24.2167 140.408 23.3 139.775 22.6C139.175 21.8667 138.225 21.5 136.925 21.5C135.725 21.5 134.642 21.85 133.675 22.55C132.708 23.2167 131.942 24.1333 131.375 25.3C130.842 26.4667 130.575 27.8 130.575 29.3V39H125.925ZM163.162 39.5C160.795 39.5 158.762 39.0333 157.062 38.1C155.362 37.1333 154.045 35.8333 153.112 34.2C152.212 32.5333 151.762 30.6333 151.762 28.5C151.762 26.4667 152.278 24.6167 153.312 22.95C154.345 21.2833 155.728 19.95 157.462 18.95C159.195 17.95 161.128 17.45 163.262 17.45C165.995 17.45 168.262 18.25 170.062 19.85C171.862 21.45 173.078 23.65 173.712 26.45L156.662 32.45L155.562 29.7L169.562 24.6L168.562 25.25C168.162 24.15 167.495 23.2 166.562 22.4C165.628 21.5667 164.412 21.15 162.912 21.15C161.645 21.15 160.512 21.4667 159.512 22.1C158.512 22.7 157.728 23.5333 157.162 24.6C156.595 25.6667 156.312 26.8833 156.312 28.25C156.312 29.6833 156.612 30.95 157.212 32.05C157.812 33.1167 158.628 33.9667 159.662 34.6C160.728 35.2 161.928 35.5 163.262 35.5C164.162 35.5 165.028 35.3333 165.862 35C166.728 34.6667 167.528 34.2333 168.262 33.7L170.412 37.15C169.378 37.85 168.212 38.4167 166.912 38.85C165.645 39.2833 164.395 39.5 163.162 39.5Z" fill="white"/>
<path d="M180 19.0003C183 19.0003 187 18.0003 187 11.0003V3.00028C187 1.75028 186.243 0.983277 185 1.00028H181C179.75 1.00028 179 1.75028 179 2.97228V9.00028C179 10.2503 179.75 11.0003 181 11.0003H181.75C181.75 13.2503 182 15.0003 179 15.0003V18.0003C179 19.0003 179 19.0003 180 19.0003Z" stroke="white" stroke-width="2" stroke-linecap="round" stroke-linejoin="round"/>
</svg>
